HIERARCHY
ROOT Hip
{
	OFFSET	0.0000	0.0000	0.0000
	CHANNELS 6 Xposition Yposition Zposition Xrotation Yrotation Zrotation
	JOINT LowerSpine
	{
		OFFSET	0.0000	8.3453	-5.1292
		CHANNELS 3 Xrotation Yrotation Zrotation
		JOINT MiddleSpine
		{
			OFFSET	10.8569	0.0000	0.0000
			CHANNELS 3 Xrotation Yrotation Zrotation
			JOINT Chest
			{
				OFFSET	15.2984	0.0000	0.0000
				CHANNELS 3 Xrotation Yrotation Zrotation
				JOINT Neck
				{
					OFFSET	25.6618	-0.5986	0.0000
					CHANNELS 3 Xrotation Yrotation Zrotation
					JOINT Head
					{
						OFFSET	8.8829	0.0000	0.0000
						CHANNELS 3 Xrotation Yrotation Zrotation
						End Site
						{
							OFFSET	19.7399	0.0000	0.0000
						}
					}
				}
				JOINT RClavicle
				{
					OFFSET	23.6878	0.0000	3.1584
					CHANNELS 3 Xrotation Yrotation Zrotation
					JOINT RShoulder
					{
						OFFSET	-15.5945	-3.9480	0.9870
						CHANNELS 3 Xrotation Yrotation Zrotation
						JOINT RForearm
						{
							OFFSET	-31.3370	0.0000	0.1974
							CHANNELS 3 Xrotation Yrotation Zrotation
							JOINT RHand
							{
								OFFSET	-26.4021	0.0000	0.0000
								CHANNELS 3 Xrotation Yrotation Zrotation
								End Site
								{
									OFFSET	-15.7919	-0.9870	0.0000
								}
							}
						}
					}
				}
				JOINT LClavicle
				{
					OFFSET	23.6878	0.0000	-3.1584
					CHANNELS 3 Xrotation Yrotation Zrotation
					JOINT LShoulder
					{
						OFFSET	-15.5945	-3.9480	-0.9870
						CHANNELS 3 Xrotation Yrotation Zrotation
						JOINT LForearm
						{
							OFFSET	-31.3370	0.0000	-0.1974
							CHANNELS 3 Xrotation Yrotation Zrotation
							JOINT LHand
							{
								OFFSET	-26.4021	0.0000	0.0000
								CHANNELS 3 Xrotation Yrotation Zrotation
								End Site
								{
									OFFSET	-15.7919	-0.9870	0.0000
								}
							}
						}
					}
				}
			}
		}
	}
	JOINT RThigh
	{
		OFFSET	-8.8829	0.4481	0.0000
		CHANNELS 3 Xrotation Yrotation Zrotation
		JOINT RShin
		{
			OFFSET	43.1316	0.0000	-0.4935
			CHANNELS 3 Xrotation Yrotation Zrotation
			JOINT RFoot
			{
				OFFSET	0.0000	-44.7256	-0.4047
				CHANNELS 3 Xrotation Yrotation Zrotation
				JOINT RToe
				{
					OFFSET	0.0000	-3.9332	12.1953
					CHANNELS 3 Xrotation Yrotation Zrotation
					End Site
					{
						OFFSET	6.7725	0.0000	0.0000
					}
				}
			}
		}
	}
	JOINT LThigh
	{
		OFFSET	8.8829	0.4481	0.0000
		CHANNELS 3 Xrotation Yrotation Zrotation
		JOINT LShin
		{
			OFFSET	43.1316	0.0000	0.4935
			CHANNELS 3 Xrotation Yrotation Zrotation
			JOINT LFoot
			{
				OFFSET	0.0000	-44.7256	0.4047
				CHANNELS 3 Xrotation Yrotation Zrotation
				JOINT LToe
				{
					OFFSET	0.0000	-3.9332	-12.1953
					CHANNELS 3 Xrotation Yrotation Zrotation
					End Site
					{
						OFFSET	6.7725	0.0000	0.0000
					}
				}
			}
		}
	}
}
MOTION
Frames:	10
Frame Time: 0.0169491000
	-8.8826	89.9630	-13.1646	1.725037	2.404425	1.801688	-89.999990	-90.000000	0.000000	0.026605	0.096365	0.035111	0.089989	0.322092	0.116074	0.000000	0.000000	0.000000	0.000000	0.000000	0.000000	89.995190	-0.177283	-87.617650	-3.539348	36.068770	66.049250	164.621100	68.517230	-163.805100	0.000000	0.000000	0.000000	-89.996990	0.078300	-88.947900	0.571353	-28.621470	67.675160	-136.873500	-81.417700	-136.807400	0.000000	0.000000	0.000000	-16.112700	76.953780	-95.476590	89.334710	53.879140	90.278720	-3.046463	2.449420	0.837397	164.498900	90.000000	0.000000	-105.505500	90.000000	0.000000	-89.741820	-27.260290	90.034260	14.789730	1.376211	-0.786927	180.014100	-90.000000	0.000000
	-8.9213	89.7711	-13.2631	1.854401	2.230332	1.734736	-89.999990	-90.000000	0.000000	-0.021589	0.089288	0.017500	-0.069929	0.299454	0.056288	0.000000	0.000000	0.000000	0.000000	0.000000	0.000000	89.995320	-0.161009	-87.836220	-2.212058	33.147720	63.395430	165.948000	66.704570	-165.032200	0.000000	0.000000	0.000000	-89.997700	0.055812	-89.250150	-0.840319	-28.889260	66.080990	-118.568800	-83.315500	-118.659800	0.000000	0.000000	0.000000	-14.143120	77.202580	-101.390900	89.168690	59.919880	90.411830	-0.090855	1.872335	0.603568	168.000700	90.000000	0.000000	-106.510600	90.000000	0.000000	-89.722210	-29.052160	90.041680	14.910460	1.307589	-0.750907	180.091100	-90.000000	0.000000
	-8.9640	89.5759	-13.3153	1.912166	2.215219	1.672422	-89.999990	-90.000000	0.000000	-0.062685	0.085812	-0.003130	-0.213848	0.288249	-0.013465	0.000000	0.000000	0.000000	0.000000	0.000000	0.000000	89.995520	-0.143345	-88.073520	-1.542417	29.518710	60.783520	167.327400	64.474320	-166.288500	0.000000	0.000000	0.000000	-89.998380	0.037370	-89.497980	-2.451700	-29.746000	64.445070	-89.385810	-84.137410	-89.643480	0.000000	0.000000	0.000000	-11.715460	77.478950	-107.443000	88.945490	65.638320	90.604730	0.947146	0.443490	0.125212	173.896900	90.000000	0.000000	-107.479200	90.000000	0.000000	-89.701740	-30.864520	90.050060	14.997230	1.258345	-0.723315	180.311700	-90.000000	0.000000
	-9.0266	89.3945	-13.3098	1.983301	2.070416	1.569596	-89.999990	-90.000000	0.000000	-0.094044	0.085090	-0.023936	-0.336386	0.286240	-0.082782	0.000000	0.000000	0.000000	0.000000	0.000000	0.000000	89.995790	-0.126736	-88.296630	-1.527131	25.388090	57.897770	168.623400	61.971580	-167.445800	0.000000	0.000000	0.000000	-89.998900	0.024515	-89.670770	-4.337310	-30.871780	62.917750	-59.288960	-83.207340	-59.720790	0.000000	0.000000	0.000000	-8.809211	77.867220	-113.680800	88.638590	70.816670	90.884740	0.793821	-0.437974	-0.171348	178.261700	90.000000	0.000000	-159.663500	89.657420	51.282660	-89.683140	-32.457570	90.058190	15.157840	1.500767	-0.904270	180.724700	-90.000000	0.000000
	-9.0971	89.2403	-13.2688	2.063114	1.604688	1.461413	-89.999990	-90.000000	0.000000	-0.112730	0.085476	-0.035766	-0.430085	0.288859	-0.124481	0.000000	0.000000	0.000000	0.000000	0.000000	0.000000	89.996070	-0.112852	-88.483170	-2.282905	21.233100	54.751900	169.754500	59.378520	-168.432200	0.000000	0.000000	0.000000	-89.999210	0.017405	-89.766340	-6.354234	-31.792680	61.651710	-40.393060	-81.042650	-40.996640	0.000000	0.000000	0.000000	-4.921914	78.671520	-120.597100	88.210820	75.277150	91.289670	0.578896	-0.545495	-0.196479	179.800400	90.000000	0.000000	-155.084800	89.409980	46.023490	-89.667080	-33.793220	90.065610	15.331220	1.964927	-1.260363	181.198000	-90.000000	0.000000
	-9.1630	89.0983	-13.2622	2.191879	1.003728	1.387526	-89.999990	-90.000000	0.000000	-0.164684	0.088727	-0.041879	-0.491232	0.293223	-0.111294	0.000000	0.000000	0.000000	0.000000	0.000000	0.000000	89.996320	-0.101505	-88.635580	-3.627090	17.311790	51.054810	170.774500	56.632440	-169.297500	0.000000	0.000000	0.000000	-89.999440	0.011983	-89.839220	-8.258304	-32.480750	60.629770	-30.518050	-78.652590	-31.273390	0.000000	0.000000	0.000000	1.271302	79.376530	-129.475000	87.596860	79.000840	91.884760	0.537999	-0.236724	-0.085680	179.999700	90.000000	0.000000	-149.881800	89.248430	40.287730	-89.655150	-34.761890	90.071340	15.570120	2.360083	-1.563035	181.480800	-90.000000	0.000000
	-9.2227	88.9696	-13.3084	2.370089	0.584266	1.356620	-89.999990	-90.000000	0.000000	-0.165386	0.089509	-0.022245	-0.526339	0.302225	-0.031133	0.000000	0.000000	0.000000	0.000000	0.000000	0.000000	89.996590	-0.090926	-88.777740	-5.298736	14.014270	46.380660	171.618100	54.005340	-169.991400	0.000000	0.000000	0.000000	-89.999440	0.012196	-89.836410	-9.890456	-33.243530	59.765770	-24.819980	-76.381340	-25.708720	0.000000	0.000000	0.000000	9.272445	79.431950	-139.681700	86.741710	81.883820	92.725350	0.455419	0.118791	0.030996	180.000000	90.000000	0.000000	-146.940600	89.124990	36.927930	-89.648580	-35.285850	90.074580	15.816650	2.330151	-1.525368	181.572700	-90.000000	0.000000
	-9.2950	88.8942	-13.3408	2.479502	0.452386	1.336631	-89.999990	-90.000000	0.000000	-0.168656	0.099286	0.045866	-0.552167	0.325142	0.107557	0.000000	0.000000	0.000000	0.000000	0.000000	0.000000	89.996920	-0.079112	-88.936440	-7.446381	11.149980	41.017840	172.211000	51.932040	-170.464800	0.000000	0.000000	0.000000	-89.999390	0.013284	-89.821780	-11.351930	-34.241400	58.947170	-21.094710	-74.250130	-22.104420	0.000000	0.000000	0.000000	16.731260	78.880680	-148.575800	85.889630	83.569340	93.568950	0.292316	0.284845	0.087155	179.999900	90.000000	0.000000	-144.999800	88.985790	34.767750	-89.646510	-35.450060	90.075610	15.892270	1.745380	-1.072446	181.659200	-90.000000	0.000000
	-9.3945	88.8987	-13.2967	2.476931	0.555112	1.293696	-89.999990	-90.000000	0.000000	-0.176944	0.112758	0.087295	-0.587439	0.373757	0.281599	0.000000	0.000000	0.000000	0.000000	0.000000	0.000000	89.997340	-0.065266	-89.122480	-10.748100	7.788837	35.674470	172.578100	50.542280	-170.751100	0.000000	0.000000	0.000000	-89.999220	0.016971	-89.772100	-12.902990	-35.465180	58.035820	-18.497230	-72.287430	-19.616500	0.000000	0.000000	0.000000	22.827020	77.972190	-155.246700	85.714040	83.833470	93.743220	0.042754	0.351232	0.121231	179.999900	90.000000	0.000000	-143.322100	88.835510	33.112520	-89.647250	-35.392720	90.075250	15.825080	1.217494	-0.691687	181.754700	-90.000000	0.000000
	-9.5049	88.9866	-13.1841	2.427261	1.005036	1.239579	-89.999990	-90.000000	0.000000	-0.192562	0.137618	0.138715	-0.642429	0.456858	0.464064	0.000000	0.000000	0.000000	0.000000	0.000000	0.000000	89.997860	-0.050161	-89.325450	-15.540610	3.926059	30.565900	172.647600	50.269390	-170.804700	0.000000	0.000000	0.000000	-89.999210	0.017347	-89.767070	-14.627990	-37.137930	57.025690	-16.216150	-70.093570	-17.456820	0.000000	0.000000	0.000000	28.307530	76.787170	-160.727500	86.309580	82.835630	93.152690	-0.280614	0.563783	0.210613	180.000000	90.000000	0.000000	-143.429200	88.737950	33.411370	-89.650570	-35.129070	90.073600	15.671830	1.216775	-0.703779	181.770500	-90.000000	0.000000
